<svg width="184" height="184" viewBox="0 0 184 184" fill="none" xmlns="http://www.w3.org/2000/svg">
<path d="M182 92C182 141.706 141.706 182 92 182M182 92C182 42.2944 141.706 2 92 2M182 92H2M92 182C42.2944 182 2 141.706 2 92M92 182C121.908 182 146.153 141.706 146.153 92C146.153 42.2944 121.908 2 92 2M92 182C62.0924 182 37.8475 141.706 37.8475 92C37.8475 42.2944 62.0924 2 92 2M92 182C102.11 182 110.305 141.706 110.305 92C110.305 42.2944 102.11 2 92 2M92 182C81.8904 182 73.6949 141.706 73.6949 92C73.6949 42.2944 81.8904 2 92 2M2 92C2 42.2944 42.2944 2 92 2M24.8814 32.5085H159.5M24.5 151.492H159.5" stroke="black" stroke-width="4"/>
</svg>
