<svg width="25" height="38" viewBox="0 0 25 38" fill="none" xmlns="http://www.w3.org/2000/svg">
<path d="M23.814 15.1083H19.9507V7.18282C19.9491 5.34484 19.2063 3.58258 17.8854 2.28294C16.5644 0.983288 14.7732 0.252476 12.9051 0.250946H12.0714C10.2033 0.252476 8.41211 0.983288 7.09115 2.28294C5.77018 3.58258 5.02739 5.34484 5.02583 7.18282V15.1083H1.17426C0.862827 15.1083 0.56415 15.23 0.343933 15.4467C0.123717 15.6633 0 15.9572 0 16.2636V36.0656C0 36.3721 0.123717 36.6659 0.343933 36.8826C0.56415 37.0992 0.862827 37.221 1.17426 37.221H23.8257C24.1372 37.221 24.4358 37.0992 24.6561 36.8826C24.8763 36.6659 25 36.3721 25 36.0656V16.2636C24.9992 16.1111 24.9679 15.9603 24.9079 15.8197C24.8479 15.6791 24.7603 15.5515 24.6502 15.4443C24.5401 15.337 24.4095 15.2521 24.2661 15.1944C24.1226 15.1368 23.969 15.1075 23.814 15.1083ZM7.37435 7.18282C7.37435 5.95719 7.86922 4.78176 8.75009 3.9151C9.63095 3.04845 10.8257 2.56157 12.0714 2.56157H12.9051C14.1509 2.56157 15.3456 3.04845 16.2264 3.9151C17.1073 4.78176 17.6022 5.95719 17.6022 7.18282V15.1083H7.37435V7.18282ZM22.6397 34.9103H2.34852V17.4189H22.6515V34.9103H22.6397Z" fill="black"/>
<path d="M12.4941 31.0285C13.4719 31.0285 14.4277 30.7432 15.2407 30.2088C16.0536 29.6743 16.6873 28.9147 17.0614 28.0259C17.4356 27.1372 17.5335 26.1592 17.3428 25.2157C17.152 24.2722 16.6812 23.4056 15.9898 22.7253C15.2984 22.0451 14.4176 21.5819 13.4586 21.3942C12.4996 21.2065 11.5056 21.3029 10.6023 21.671C9.69898 22.0391 8.92689 22.6625 8.38368 23.4624C7.84047 24.2623 7.55054 25.2026 7.55054 26.1646C7.55267 27.454 8.0742 28.6899 9.00084 29.6016C9.92749 30.5133 11.1837 31.0264 12.4941 31.0285ZM12.4941 23.5998C13.0074 23.5998 13.5091 23.7496 13.9359 24.0301C14.3627 24.3107 14.6953 24.7094 14.8917 25.176C15.0881 25.6425 15.1395 26.1559 15.0394 26.6512C14.9392 27.1465 14.6921 27.6014 14.3292 27.9585C13.9662 28.3156 13.5038 28.5587 13.0004 28.6573C12.497 28.7558 11.9752 28.7052 11.501 28.512C11.0268 28.3187 10.6215 27.9915 10.3364 27.5716C10.0512 27.1517 9.89904 26.6581 9.89904 26.1531C9.89924 25.476 10.1727 24.8266 10.6593 24.3479C11.146 23.8691 11.8059 23.6 12.4941 23.5998Z" fill="black"/>
</svg>
