<svg width="161" height="120" viewBox="0 0 161 120" fill="none" xmlns="http://www.w3.org/2000/svg">
<path d="M80.2778 24.349C77.5405 24.349 75.3171 22.1257 75.3171 19.3884V4.96065C75.3171 2.22333 77.5405 0 80.2778 0C83.0151 0 85.2384 2.22333 85.2384 4.96065V19.3884C85.2384 22.1257 83.0151 24.349 80.2778 24.349Z" fill="white"/>
<path d="M45.8403 29.8244C44.1191 29.8244 42.4575 28.9398 41.5371 27.3381L34.3292 14.8468C32.9546 12.4681 33.7674 9.4319 36.1461 8.05726C38.5249 6.68262 41.5491 7.49545 42.9357 9.87417L50.1436 22.3655C51.5182 24.7442 50.7054 27.7803 48.3266 29.155C47.5258 29.6092 46.6771 29.8244 45.8403 29.8244Z" fill="white"/>
<path d="M17.4511 46.6425C16.6144 46.6425 15.7538 46.4274 14.9768 45.9731L2.4855 38.7653C0.106774 37.3906 -0.706054 34.3545 0.668585 31.9757C2.04322 29.597 5.06743 28.7842 7.4581 30.1588L19.9494 37.3667C22.3281 38.7413 23.1409 41.7775 21.7663 44.1562C20.8339 45.746 19.1724 46.6425 17.4511 46.6425Z" fill="white"/>
<path d="M142.794 46.6425C141.073 46.6425 139.411 45.758 138.491 44.1562C137.116 41.7775 137.929 38.7413 140.308 37.3667L152.799 30.1588C155.166 28.7842 158.214 29.597 159.589 31.9757C160.963 34.3545 160.15 37.3906 157.772 38.7653L145.28 45.9731C144.491 46.4154 143.631 46.6425 142.794 46.6425Z" fill="white"/>
<path d="M114.118 29.8244C113.281 29.8244 112.421 29.6092 111.644 29.155C109.265 27.7803 108.452 24.7442 109.827 22.3655L117.035 9.87417C118.409 7.49545 121.445 6.68262 123.824 8.05726C126.203 9.4319 127.016 12.4681 125.641 14.8468L118.433 27.3381C117.501 28.9398 115.839 29.8244 114.118 29.8244Z" fill="white"/>
<path d="M80.1347 119.999C50.837 119.999 23.8104 104.053 9.59781 78.3774C8.72521 76.7876 8.72521 74.8511 9.59781 73.2613C23.8104 47.5855 50.837 31.6396 80.1347 31.6396C109.432 31.6396 136.459 47.5855 150.672 73.2613C151.556 74.8511 151.556 76.7876 150.672 78.3774C136.459 104.053 109.42 119.999 80.1347 119.999ZM20.32 75.8193C33.0025 96.6302 55.6542 109.432 80.1347 109.432C104.603 109.432 127.267 96.6302 139.949 75.8193C127.255 55.0085 104.603 42.2064 80.1347 42.2064C55.6542 42.2064 33.0025 55.0205 20.32 75.8193Z" fill="white"/>
<path d="M80.1343 103.074C65.1089 103.074 52.8806 90.8455 52.8806 75.8201C52.8806 60.7947 65.1089 48.5664 80.1343 48.5664C95.1597 48.5664 107.388 60.7947 107.388 75.8201C107.388 90.8455 95.1597 103.074 80.1343 103.074ZM80.1343 59.1332C70.9302 59.1332 63.4474 66.616 63.4474 75.8321C63.4474 85.0481 70.9302 92.5309 80.1343 92.5309C89.3384 92.5309 96.8332 85.0481 96.8332 75.8321C96.8332 66.616 89.3384 59.1332 80.1343 59.1332Z" fill="white"/>
</svg>
