<svg width="254" height="75" viewBox="0 0 254 75" fill="none" xmlns="http://www.w3.org/2000/svg">
<g clip-path="url(#clip0_453_475)">
<path d="M228.795 7.58405C228.385 7.58405 227.991 7.42116 227.701 7.13121C227.411 6.84126 227.249 6.448 227.249 6.03795V1.54611C227.249 1.13605 227.411 0.742795 227.701 0.452844C227.991 0.162893 228.385 0 228.795 0C229.205 0 229.598 0.162893 229.888 0.452844C230.178 0.742795 230.341 1.13605 230.341 1.54611V6.03795C230.341 6.24099 230.301 6.44204 230.223 6.62962C230.145 6.8172 230.031 6.98764 229.888 7.13121C229.744 7.27478 229.574 7.38866 229.386 7.46636C229.199 7.54406 228.998 7.58405 228.795 7.58405Z" fill="black"/>
<path d="M218.07 9.29289C217.798 9.29354 217.53 9.22241 217.295 9.08667C217.059 8.95094 216.863 8.75542 216.727 8.51983L214.514 4.63016C214.407 4.45417 214.337 4.25872 214.307 4.05525C214.277 3.85177 214.288 3.64436 214.339 3.44517C214.39 3.24598 214.481 3.059 214.605 2.89519C214.73 2.73138 214.885 2.59402 215.063 2.49117C215.242 2.38831 215.438 2.32202 215.642 2.29619C215.846 2.27035 216.054 2.28548 216.252 2.34069C216.45 2.3959 216.635 2.49009 216.796 2.61773C216.957 2.74537 217.092 2.90391 217.191 3.08405L219.396 6.97373C219.532 7.20844 219.603 7.47465 219.603 7.74567C219.603 8.0167 219.532 8.28301 219.397 8.51792C219.262 8.75283 219.067 8.94807 218.833 9.08409C218.599 9.22011 218.333 9.29211 218.062 9.29289H218.07Z" fill="black"/>
<path d="M209.224 14.5252C208.953 14.5252 208.687 14.4551 208.451 14.3218L204.561 12.0759C204.215 11.8665 203.965 11.5297 203.864 11.1378C203.763 10.7459 203.82 10.3301 204.023 9.97968C204.225 9.62928 204.557 9.37217 204.946 9.26354C205.336 9.15492 205.753 9.20343 206.108 9.39866L209.997 11.6446C210.29 11.8157 210.518 12.0783 210.647 12.3918C210.775 12.7053 210.798 13.0525 210.71 13.3799C210.622 13.7072 210.429 13.9967 210.161 14.2036C209.892 14.4106 209.563 14.5236 209.224 14.5252Z" fill="black"/>
<path d="M248.268 14.5252C247.925 14.5327 247.59 14.4262 247.314 14.2225C247.039 14.0188 246.839 13.7295 246.746 13.3998C246.653 13.0702 246.672 12.7189 246.8 12.4013C246.928 12.0836 247.158 11.8174 247.454 11.6446L251.343 9.39868C251.698 9.19258 252.121 9.13595 252.518 9.24124C252.714 9.29338 252.898 9.38371 253.06 9.50706C253.221 9.63041 253.357 9.78438 253.459 9.96016C253.561 10.136 253.628 10.3301 253.655 10.5316C253.682 10.733 253.669 10.9378 253.617 11.1343C253.564 11.3308 253.474 11.515 253.351 11.6766C253.227 11.8382 253.074 11.9738 252.898 12.0759L249 14.3218C248.777 14.4505 248.525 14.5205 248.268 14.5252Z" fill="black"/>
<path d="M239.332 9.29289C239.062 9.29289 238.795 9.2228 238.559 9.08945C238.383 8.98756 238.229 8.85197 238.106 8.69043C237.982 8.52889 237.892 8.34458 237.84 8.14806C237.788 7.95153 237.775 7.74665 237.802 7.54514C237.829 7.34363 237.896 7.14946 237.998 6.97373L240.244 3.08405C240.343 2.90391 240.477 2.74537 240.639 2.61773C240.8 2.49009 240.985 2.3959 241.183 2.34069C241.381 2.28548 241.588 2.27035 241.792 2.29619C241.996 2.32202 242.193 2.38831 242.371 2.49117C242.549 2.59402 242.705 2.73138 242.83 2.89519C242.954 3.059 243.044 3.24598 243.096 3.44517C243.147 3.64436 243.158 3.85177 243.128 4.05525C243.098 4.25872 243.028 4.45417 242.921 4.63016L240.675 8.51983C240.539 8.75542 240.343 8.95094 240.108 9.08667C239.872 9.22241 239.604 9.29354 239.332 9.29289Z" fill="black"/>
<path d="M228.746 37.375C224.26 37.3722 219.857 36.1685 215.993 33.889C212.13 31.6095 208.947 28.3373 206.775 24.4122C206.639 24.1697 206.568 23.8965 206.568 23.6188C206.568 23.341 206.639 23.0679 206.775 22.8254C208.945 18.8991 212.128 15.6262 215.992 13.347C219.856 11.0678 224.26 9.86566 228.746 9.86566C233.232 9.86566 237.636 11.0678 241.5 13.347C245.364 15.6262 248.547 18.8991 250.717 22.8254C250.852 23.0679 250.923 23.341 250.923 23.6188C250.923 23.8965 250.852 24.1697 250.717 24.4122C248.545 28.3373 245.362 31.6095 241.499 33.889C237.635 36.1685 233.232 37.3722 228.746 37.375ZM210.119 23.5984C212.066 26.7942 214.803 29.4353 218.066 31.268C221.328 33.1007 225.008 34.0633 228.75 34.0633C232.492 34.0633 236.171 33.1007 239.434 31.268C242.697 29.4353 245.433 26.7942 247.38 23.5984C245.435 20.4007 242.699 17.7577 239.436 15.9235C236.173 14.0894 232.493 13.126 228.75 13.126C225.007 13.126 221.327 14.0894 218.064 15.9235C214.801 17.7577 212.065 20.4007 210.119 23.5984Z" fill="black"/>
<path d="M228.746 32.1102C227.068 32.1102 225.428 31.613 224.033 30.6815C222.638 29.75 221.55 28.4259 220.907 26.8764C220.264 25.327 220.094 23.6217 220.42 21.976C220.745 20.3303 221.551 18.818 222.736 17.6301C223.92 16.4421 225.43 15.6319 227.075 15.3016C228.72 14.9714 230.426 15.136 231.977 15.7746C233.528 16.4133 234.855 17.4973 235.791 18.8898C236.726 20.2823 237.228 21.9209 237.233 23.5985C237.235 24.7148 237.017 25.8206 236.592 26.8526C236.166 27.8847 235.542 28.8228 234.754 29.6133C233.965 30.4038 233.029 31.0312 231.998 31.4596C230.967 31.888 229.862 32.1091 228.746 32.1102ZM228.746 18.4231C227.716 18.4231 226.71 18.7287 225.854 19.3011C224.999 19.8736 224.332 20.6871 223.94 21.6387C223.547 22.5902 223.445 23.637 223.648 24.6463C223.85 25.6556 224.348 26.5821 225.078 27.3083C225.807 28.0345 226.736 28.5278 227.746 28.7257C228.757 28.9236 229.803 28.8171 230.753 28.4198C231.702 28.0225 232.513 27.3522 233.081 26.4939C233.65 25.6356 233.95 24.6279 233.946 23.5985C233.937 22.2243 233.386 20.9092 232.412 19.9398C231.438 18.9704 230.12 18.4252 228.746 18.4231Z" fill="black"/>
<path d="M1.81006 38.1644H5.38238V24.99H19.7123V21.6943H5.38238V11.9294H20.0297V8.67448H1.81006V38.1644ZM42.497 38.1644H46.2972L37.3461 8.60124H30.6734L21.7385 38.1644H25.5468L27.6951 30.8407H40.3732L42.5296 38.1644H42.497ZM34.2864 10.1229L39.3967 27.5207H28.6716L33.7819 10.1229H34.2864ZM69.1226 27.5207C69.1641 27.1258 69.1267 26.7267 69.0125 26.3464C68.8984 25.9661 68.7097 25.6124 68.4575 25.3057C68.2054 24.999 67.8948 24.7455 67.5437 24.56C67.1927 24.3745 66.8083 24.2606 66.4129 24.225V23.7205C67.6069 23.1977 68.5961 22.2971 69.2284 21.1572C69.8042 20.1675 70.1179 19.0471 70.1398 17.9023V16.6247C70.1453 15.578 69.952 14.5397 69.5702 13.5651C69.194 12.6027 68.617 11.7316 67.8776 11.0099C67.0745 10.2367 66.1181 9.6407 65.0702 9.26037C63.799 8.79575 62.4523 8.57222 61.0991 8.60124H50.5205V38.1644H54.0684V26.0397H63.2962C63.6172 26.0054 63.9419 26.0407 64.248 26.1432C64.5541 26.2457 64.8346 26.413 65.0702 26.6337C65.4362 27.1045 65.6236 27.6898 65.5991 28.2856V38.1644H69.1389V27.5207H69.1226ZM54.0928 11.8969H60.7167C62.7185 11.8969 64.2049 12.3553 65.176 13.2721C65.6604 13.7354 66.0408 14.2964 66.292 14.9179C66.5431 15.5394 66.6592 16.2072 66.6326 16.877V17.6419C66.681 18.3395 66.5756 19.0392 66.3239 19.6916C66.0722 20.3441 65.6803 20.9333 65.176 21.4176C64.1778 22.2802 62.6914 22.7115 60.7167 22.7115H54.0928V11.8969ZM92.6885 18.6509H96.2364V16.877C96.2406 15.7104 96.0052 14.5555 95.5447 13.4837C95.0837 12.3971 94.3826 11.4289 93.4941 10.6519C92.521 9.80883 91.3973 9.15726 90.1822 8.73144C87.4602 7.82961 84.528 7.77852 81.7763 8.58496C80.6531 8.92409 79.606 9.47667 78.6922 10.2124C77.8522 10.8928 77.167 11.7444 76.6823 12.7106C76.2002 13.6956 75.955 14.7795 75.9662 15.8761V16.3806C75.9392 17.5161 76.1701 18.6429 76.6416 19.6762C77.1086 20.6102 77.7854 21.4234 78.6189 22.0524C79.5402 22.7628 80.5746 23.313 81.6786 23.6798C83.0001 24.1222 84.3634 24.4276 85.7473 24.5912C88.3079 24.9601 90.1578 25.5514 91.297 26.3652C91.8604 26.7626 92.3135 27.2967 92.6138 27.9173C92.9141 28.5379 93.0519 29.2247 93.014 29.9131V30.1084C93.0469 30.8331 92.918 31.556 92.6364 32.2247C92.3549 32.8933 91.9279 33.4907 91.3865 33.9736C90.269 34.9393 88.6144 35.4248 86.4227 35.4302C84.2698 35.5608 82.1482 34.8652 80.4906 33.4854C78.9987 32.216 78.2501 30.2766 78.2446 27.6672V26.6744H74.7049V27.9438C74.69 29.4078 74.9466 30.8618 75.4616 32.2322C75.9498 33.515 76.7041 34.6798 77.675 35.6499C78.7085 36.6635 79.9495 37.4409 81.3124 37.9284C82.917 38.5028 84.6131 38.7786 86.3169 38.7422C87.8036 38.7677 89.2846 38.5533 90.703 38.1074C91.8754 37.7381 92.9606 37.1346 93.8928 36.3335C94.743 35.5872 95.4086 34.6541 95.8377 33.6075C96.2979 32.4987 96.5303 31.3088 96.5212 30.1084V29.6039C96.5665 28.6012 96.3943 27.6006 96.0165 26.6707C95.6386 25.7409 95.0641 24.9038 94.3323 24.2169C92.8675 22.8824 90.5809 21.971 87.4887 21.4909C86.3206 21.3288 85.163 21.0979 84.0222 20.7992C83.1646 20.5767 82.3428 20.2342 81.581 19.782C80.964 19.421 80.4466 18.912 80.0755 18.301C79.7141 17.6865 79.5205 16.9877 79.5141 16.2748V16.0144C79.5009 15.3141 79.675 14.623 80.0186 14.0126C80.3622 13.4303 80.8321 12.9325 81.3938 12.556C81.9937 12.1477 82.6561 11.8399 83.3549 11.6446C84.1118 11.4295 84.8954 11.3226 85.6822 11.3273C86.5831 11.3248 87.4795 11.4536 88.3431 11.7097C89.1474 11.9426 89.9048 12.3144 90.5809 12.8083C91.2271 13.286 91.7536 13.9072 92.1189 14.6229C92.5118 15.4076 92.7073 16.2763 92.6885 17.1536V18.6753V18.6509ZM102.217 11.8969H109.818V34.8688H102.217V38.1237H120.933V34.8688H113.333V11.8969H120.933V8.64193H102.217V11.8969ZM132.895 27.2684H142.522V27.7729C142.657 29.8286 142.019 31.8605 140.732 33.4691C140.104 34.1513 139.334 34.6865 138.476 35.0368C137.618 35.387 136.693 35.5436 135.768 35.4953C133.435 35.4953 131.696 34.7141 130.552 33.1518C129.407 31.5894 128.838 29.357 128.843 26.4547V20.3435C128.744 18.051 129.34 15.7819 130.552 13.8336C131.121 13.0119 131.893 12.3509 132.792 11.9147C133.692 11.4785 134.689 11.2818 135.687 11.3435C136.753 11.3139 137.813 11.5253 138.787 11.962C139.608 12.334 140.332 12.891 140.903 13.5895C141.442 14.2951 141.845 15.0955 142.091 15.9493C142.358 16.8555 142.492 17.7957 142.489 18.7404V19.245H146.037V18.716C146.051 17.2857 145.822 15.8633 145.362 14.509C144.943 13.2451 144.267 12.0815 143.376 11.0913C142.474 10.099 141.362 9.32058 140.121 8.81281C138.7 8.2415 137.177 7.96466 135.646 7.99907C132.391 7.99907 129.841 9.05422 127.997 11.1645C126.152 13.2748 125.238 16.2585 125.254 20.1157V26.6988C125.254 30.6482 126.163 33.6481 127.98 35.6988C128.925 36.7339 130.086 37.5472 131.382 38.0804C132.678 38.6136 134.076 38.8535 135.475 38.7828C136.962 38.813 138.428 38.4178 139.698 37.6436C140.849 36.9484 141.739 35.893 142.229 34.6409H142.742V38.1644H145.997V23.9728H132.895V27.2277V27.2684ZM153.418 38.1644H156.966V24.99H169.554V38.1644H173.102V8.60124H169.554V21.6943H156.966V8.60124H153.418V38.1644ZM177.895 11.8969H186.513V38.1644H190.061V11.8969H198.678V8.64193H177.895V11.8969Z" fill="black"/>
<path d="M5.75665 68.6308C4.61741 67.0684 4.0478 64.836 4.0478 61.9337V55.8551C3.94879 53.5625 4.5444 51.2935 5.75665 49.3452C6.3256 48.5225 7.09703 47.8604 7.99645 47.4228C8.89588 46.9852 9.89293 46.7869 10.8913 46.847C11.9527 46.8195 13.0067 47.0309 13.9754 47.4654C14.7846 47.8424 15.4971 48.399 16.0586 49.0929C16.6182 49.8009 17.0355 50.6105 17.2873 51.4772C17.5566 52.384 17.7044 53.3226 17.7268 54.2683V54.7728H21.2747V54.2683C21.288 52.8406 21.0597 51.4209 20.5993 50.0694C20.18 48.8031 19.5041 47.6368 18.6137 46.6435C17.7119 45.6513 16.5998 44.8728 15.3588 44.3651C13.9374 43.7938 12.4148 43.5169 10.8832 43.5513C7.62825 43.5513 5.07853 44.6065 3.23406 46.7168C1.38958 48.8271 0.47819 51.7891 0.49989 55.6028V62.1941C0.49989 66.1326 1.41399 69.1163 3.24219 71.1452C5.07039 73.1742 7.62011 74.2022 10.8913 74.2293C12.4226 74.2597 13.9444 73.983 15.3669 73.4156C16.6085 72.905 17.7205 72.1238 18.6219 71.129C19.5122 70.1388 20.1882 68.9752 20.6074 67.7113C21.0672 66.3596 21.2955 64.94 21.2828 63.5124V62.9997H17.7268V63.5124C17.733 64.4627 17.5987 65.4087 17.328 66.3198C17.0756 67.1771 16.6612 67.9782 16.1074 68.6796C15.5366 69.3775 14.8126 69.9344 13.9917 70.3071C13.0163 70.7378 11.9573 70.9463 10.8913 70.9174C9.90825 70.9832 8.92422 70.8035 8.02788 70.3944C7.13153 69.9853 6.35102 69.3596 5.75665 68.5738V68.6308ZM26.1734 62.1941C26.1734 66.1326 27.0902 69.1163 28.9238 71.1452C30.7574 73.1742 33.3045 74.2022 36.5648 74.2293C39.8198 74.2293 42.3831 73.204 44.2058 71.1452C46.0286 69.0865 46.9563 66.0919 46.9563 62.1941V55.6028C46.9563 51.7728 46.0395 48.8027 44.2058 46.6924C42.3831 44.5766 39.8279 43.5269 36.5648 43.5269C33.3017 43.5269 30.7547 44.5766 28.9238 46.6924C27.0929 48.8081 26.1734 51.7701 26.1734 55.6028V62.1941ZM31.422 68.6308C30.2719 67.0684 29.6996 64.836 29.705 61.9337V55.8551C29.6017 53.561 30.2007 51.2899 31.422 49.3452C31.9897 48.5232 32.7597 47.8614 33.6577 47.4238C34.5557 46.9862 35.5514 46.7875 36.5486 46.847C37.5469 46.7877 38.5436 46.9864 39.4429 47.4239C40.3422 47.8614 41.1137 48.5231 41.6833 49.3452C42.8955 51.2935 43.4911 53.5625 43.3921 55.8551V61.9337C43.3921 64.8415 42.8225 67.0738 41.6833 68.6308C41.0884 69.4161 40.3078 70.0413 39.4116 70.4504C38.5154 70.8594 37.5316 71.0395 36.5486 70.9744C35.5667 71.0396 34.5841 70.8595 33.6891 70.4504C32.7942 70.0413 32.0151 69.416 31.422 68.6308ZM52.3026 73.676H71.2952V70.3803H55.8342V44.1128H52.3188V73.676H52.3026ZM76.4544 73.676H95.4633V70.3803H80.0023V44.1128H76.4706V73.676H76.4544ZM100.053 73.676H118.207V70.3803H103.56V60.5015H117.662V57.2466H103.633V47.4817H117.988V44.2267H100.085V73.676H100.053ZM128.257 68.6308C127.112 67.0684 126.54 64.836 126.54 61.9337V55.8551C126.437 53.561 127.036 51.2899 128.257 49.3452C128.825 48.5232 129.595 47.8614 130.493 47.4238C131.391 46.9862 132.386 46.7875 133.384 46.847C134.445 46.8187 135.499 47.0301 136.468 47.4654C137.279 47.8423 137.994 48.3988 138.559 49.0929C139.116 49.8013 139.531 50.611 139.78 51.4772C140.048 52.3845 140.198 53.3226 140.227 54.2683V54.7728H143.718V54.2683C143.727 52.8409 143.499 51.4219 143.043 50.0694C142.617 48.806 141.942 47.641 141.057 46.6435C140.155 45.6519 139.043 44.8736 137.802 44.3651C136.381 43.7929 134.858 43.516 133.327 43.5513C130.072 43.5513 127.525 44.6065 125.686 46.7168C123.847 48.8271 122.941 51.7891 122.968 55.6028V62.1941C122.968 66.1326 123.885 69.1163 125.718 71.1452C127.552 73.1742 130.099 74.2022 133.359 74.2293C134.89 74.2606 136.412 73.9839 137.835 73.4156C139.076 72.904 140.188 72.123 141.09 71.129C141.974 70.1346 142.65 68.9722 143.075 67.7113C143.531 66.3586 143.759 64.9397 143.751 63.5124V62.9997H140.203V63.5124C140.205 64.4624 140.071 65.4079 139.804 66.3198C139.552 67.1789 139.135 67.9805 138.575 68.6796C138.008 69.3773 137.286 69.9343 136.468 70.3071C135.489 70.7379 134.428 70.9464 133.359 70.9174C132.377 70.9826 131.395 70.8025 130.5 70.3934C129.605 69.9843 128.826 69.359 128.233 68.5738L128.257 68.6308ZM146.159 47.4085H154.777V73.676H158.325V47.4085H166.942V44.1535H146.11V47.4085H146.159ZM172.199 47.4085H179.799V70.3803H172.199V73.676H190.915V70.3803H183.307V47.4085H190.915V44.1535H172.126V47.4085H172.199ZM203.121 73.676H209.956L218.322 44.1128H214.513L206.783 72.1543H206.278L198.548 44.1128H194.748L203.121 73.676ZM222.586 73.676H240.716V70.3803H226.069V60.5015H240.171V57.2466H226.101V47.4817H240.455V44.2267H222.553V73.676H222.586Z" fill="black"/>
</g>
<defs>
<clipPath id="clip0_453_475">
<rect width="253.203" height="74.27" fill="white" transform="translate(0.5)"/>
</clipPath>
</defs>
</svg>
